<svg width="63" height="80" viewBox="0 0 63 80" fill="none" xmlns="http://www.w3.org/2000/svg">
<g clip-path="url(#clip0)">
<path d="M38.3661 0V0.0999069H11.6894C9.59122 0.0999069 7.8927 1.69841 7.8927 3.69654V21.6797H10.99V5.59477C10.99 4.19608 12.089 3.0971 13.4878 3.0971H38.3661V20.5807C38.3661 22.5789 40.0646 24.3772 42.0629 24.3772H59.5476V67.2371C59.5476 68.6358 58.4486 69.7348 57.0498 69.7348H45.8595C45.7596 69.8347 45.7596 69.9346 45.6597 70.0345L43.5615 72.732H58.8482C60.9464 72.732 62.545 71.0336 62.545 68.9355V24.2773L38.3661 0Z" fill="white"/>
<path d="M24.678 69.8348H13.4878C12.089 69.8348 10.99 68.7358 10.99 67.3371V44.8582H7.8927V69.0355C7.8927 71.1336 9.59122 72.832 11.6894 72.832H26.976L24.8779 70.1345C24.8779 70.0346 24.778 69.9347 24.678 69.8348Z" fill="white"/>
<path d="M43.3621 67.5367H39.3656V53.7496C39.3656 52.8504 38.6662 52.0511 37.767 52.0511H32.7714C31.8722 52.0511 31.0729 52.8504 31.0729 53.7496V67.5367H27.0763C26.277 67.5367 25.7775 68.4358 26.277 69.0353L34.37 79.6254C34.7696 80.1249 35.5689 80.1249 35.9686 79.6254L44.0615 69.0353C44.661 68.4358 44.1614 67.5367 43.3621 67.5367Z" fill="#3086F6"/>
<rect y="23.2727" width="36.3636" height="19.6364" rx="5" fill="#3086F6"/>
<path d="M4.87927 37.8182V38.0682H5.12927H7.77558C9.46774 38.0682 10.8014 37.6493 11.7365 36.7738C12.6785 35.8958 13.1328 34.6431 13.1328 33.0561C13.1328 31.5606 12.6943 30.3636 11.7898 29.5003C10.8866 28.6381 9.63264 28.223 8.06322 28.223H5.12927H4.87927V28.473V37.8182ZM15.3723 29.3886L15.3723 29.3887C14.5474 30.2686 14.1541 31.5259 14.1541 33.12C14.1541 34.7145 14.5475 35.9771 15.371 36.8691C16.1973 37.7643 17.3712 38.196 18.853 38.196C20.3348 38.196 21.5087 37.7643 22.335 36.8691C23.1582 35.9773 23.5519 34.7191 23.5519 33.1328C23.5519 31.5432 23.1608 30.2849 22.3419 29.397C21.5236 28.5051 20.3511 28.076 18.8658 28.076C17.3807 28.076 16.2031 28.5028 15.3723 29.3886ZM17.2816 30.9252L17.2822 30.9244C17.6266 30.4664 18.1398 30.2251 18.8658 30.2251C19.5906 30.2251 20.0981 30.4639 20.4345 30.9142C20.7811 31.3782 20.9744 32.1041 20.9744 33.1328C20.9744 34.1591 20.7801 34.8831 20.4318 35.3459C20.0936 35.7954 19.5828 36.0341 18.853 36.0341C18.1262 36.0341 17.6157 35.7944 17.276 35.3415C16.9262 34.875 16.7315 34.152 16.7315 33.1328C16.7315 32.1141 16.9281 31.3915 17.2816 30.9252ZM27.6775 30.9794L27.6781 30.9787C28.0363 30.4862 28.5356 30.2379 29.2081 30.2379C29.5183 30.2379 29.8378 30.2941 30.1676 30.4093C30.5125 30.5298 30.8557 30.6713 31.1973 30.8337L31.4385 30.9484L31.5371 30.7002L32.1763 29.0894L32.2623 28.8725L32.0519 28.7717C31.1061 28.3186 30.1574 28.0888 29.2081 28.0888C28.2799 28.0888 27.457 28.2934 26.7482 28.7114C26.0425 29.1258 25.5026 29.7245 25.1288 30.4988C24.7556 31.2676 24.5732 32.1564 24.5732 33.1584C24.5732 34.737 24.9416 35.9888 25.7149 36.8766L25.7153 36.877C26.4942 37.7665 27.6103 38.196 29.0227 38.196C29.9972 38.196 30.8871 38.0313 31.6885 37.6974L31.8423 37.6333V37.4666V35.8047V35.4518L31.5094 35.5688C30.5907 35.8919 29.8256 36.0469 29.2081 36.0469C28.4871 36.0469 27.9827 35.8105 27.6487 35.3654C27.3045 34.9068 27.1122 34.189 27.1122 33.1712C27.1122 32.2001 27.3111 31.4795 27.6775 30.9794ZM8.16549 30.3466C9.00471 30.3466 9.59084 30.5827 9.97243 31.0147C10.3593 31.4527 10.5746 32.1351 10.5746 33.1072C10.5746 34.0978 10.3436 34.7942 9.92574 35.2428C9.51102 35.688 8.87222 35.9318 7.96095 35.9318H7.36081V30.3466H8.16549Z" fill="white" stroke="white" stroke-width="0.5"/>
</g>
<defs>
<clipPath id="clip0">
<rect width="62.5455" height="80" fill="white"/>
</clipPath>
</defs>
</svg>
