<svg width="63" height="80" viewBox="0 0 63 80" fill="none" xmlns="http://www.w3.org/2000/svg">
<g clip-path="url(#clip0)">
<path d="M38.3661 0V0.0999069H11.6894C9.59122 0.0999069 7.8927 1.69841 7.8927 3.69654V21.6797H10.99V5.59477C10.99 4.19608 12.089 3.0971 13.4878 3.0971H38.3661V20.5807C38.3661 22.5789 40.0646 24.3772 42.0629 24.3772H59.5476V67.2371C59.5476 68.6358 58.4486 69.7348 57.0498 69.7348H45.8595C45.7596 69.8347 45.7596 69.9346 45.6597 70.0345L43.5615 72.732H58.8482C60.9464 72.732 62.545 71.0336 62.545 68.9355V24.2773L38.3661 0Z" fill="white"/>
<path d="M24.678 69.8348H13.4878C12.089 69.8348 10.99 68.7358 10.99 67.3371V44.8582H7.8927V69.0355C7.8927 71.1336 9.59122 72.832 11.6894 72.832H26.976L24.8779 70.1345C24.8779 70.0346 24.778 69.9347 24.678 69.8348Z" fill="white"/>
<path d="M43.3621 67.5367H39.3656V53.7496C39.3656 52.8504 38.6662 52.0511 37.767 52.0511H32.7714C31.8722 52.0511 31.0729 52.8504 31.0729 53.7496V67.5367H27.0763C26.277 67.5367 25.7775 68.4358 26.277 69.0353L34.37 79.6254C34.7696 80.1249 35.5689 80.1249 35.9686 79.6254L44.0615 69.0353C44.661 68.4358 44.1614 67.5367 43.3621 67.5367Z" fill="#FF2116"/>
<rect y="23.2727" width="36.3636" height="19.6364" rx="5" fill="#FF2116"/>
<path d="M10.3531 30.6165L10.3531 30.6165L10.3547 30.6179C10.5373 30.7762 10.652 31.0378 10.652 31.4581C10.652 31.8578 10.5241 32.1308 10.2925 32.3172C10.0531 32.5055 9.66333 32.6207 9.08024 32.6207H8.67825V30.3466H9.32953C9.84509 30.3466 10.1683 30.4536 10.3531 30.6165ZM8.42825 38.0682H8.67825V37.8182V34.7443H9.27839C10.4724 34.7443 11.4309 34.4702 12.118 33.8863C12.8171 33.2959 13.1527 32.4495 13.1527 31.3878C13.1527 30.3674 12.8379 29.5608 12.1735 29.0154C11.5233 28.474 10.5961 28.223 9.4318 28.223H6.44672H6.19672V28.473V37.8182V38.0682H6.44672H8.42825ZM14.4169 37.8182V38.0682H14.6669H17.3132C19.0054 38.0682 20.339 37.6493 21.2741 36.7738C22.2161 35.8959 22.6704 34.6431 22.6704 33.0561C22.6704 31.5606 22.2319 30.3636 21.3274 29.5003C20.4242 28.6381 19.1703 28.223 17.6008 28.223H14.6669H14.4169V28.473V37.8182ZM26.3068 38.0682H26.5568V37.8182V34.3736H29.4773H29.7273V34.1236V32.5064V32.2564H29.4773H26.5568V30.3466H29.7138H29.9638V30.0966V28.473V28.223H29.7138H24.3572H24.1072V28.473V37.8182V38.0682H24.3572H26.3068ZM17.7031 30.3466C18.5423 30.3466 19.1285 30.5827 19.51 31.0148C19.8969 31.4527 20.1122 32.1351 20.1122 33.1073C20.1122 34.0978 19.8812 34.7942 19.4633 35.2428C19.0486 35.6881 18.4098 35.9318 17.4986 35.9318H16.8984V30.3466H17.7031Z" fill="white" stroke="white" stroke-width="0.5"/>
</g>
<defs>
<clipPath id="clip0">
<rect width="62.5455" height="80" fill="white"/>
</clipPath>
</defs>
</svg>
