<svg id="Layer_1" data-name="Layer 1" xmlns="http://www.w3.org/2000/svg" viewBox="0 0 669 149.07"><defs><style>.cls-1{fill:#fff;}.cls-2{fill:#36a9e1;}</style></defs><title>logo</title><circle class="cls-1" cx="71" cy="73.07" r="61"/><path class="cls-2" d="M71.44,7.09a67.45,67.45,0,1,0,67.45,67.46A67.45,67.45,0,0,0,71.44,7.09m35,49.32c-2.43,0-5-1.91-5-4.34,0-.51.17-3,.17-3.29,0-.69-1.39-1.21-2.42-1.21-5.72,0-9.19,6.41-13.35,22.69H96.35l-1.56,4.51H84.58L80.41,90.93c-6.06,20.78-14.94,31.24-27.63,32-6.41.38-10.65-3.7-10.88-7.69a6,6,0,0,1,5.51-6.4,4.6,4.6,0,0,1,4.78,4.23c0,.69-.16,3-.14,3.48.05.87.78,1.34,2.16,1.25,7.26-.43,9.56-7.91,13.17-22.29L72.91,75A24.94,24.94,0,0,1,62,77.25c-12.13,0-20.1-8.32-20.1-19.76,0-18.71,18-36,35.19-36,8.31,0,15.24,4,15.24,10.22a8,8,0,0,1-8.14,7.8c-3.81,0-5.89-2.08-5.89-5.37,0-2.6,2.08-4.33,2.08-5.72,0-1.56-1.73-2.6-4.34-2.6-9.53,0-20.62,14.73-20.62,29.63,0,9.15,5,14.51,12.55,14.55,4.72-.31,6.33-3.21,12.41-13.55,4.51-7.81,10.92-13,20.62-13,6.58,0,10.75,3,10.75,7.45a5.34,5.34,0,0,1-5.37,5.55"/><path class="cls-1" d="M175.16,88.23c-1.47,1.89-3.73,3.36-7.61,3.36H166c-5.77,0-9.45-3.67-9.45-8.92V66.4c0-5.25,3.68-8.92,9.45-8.92h1.58c3.72,0,6,1.36,7.45,3.15a7.29,7.29,0,0,1,1.26,2.1.52.52,0,0,1-.32.47l-2.73,1.36a2.81,2.81,0,0,1-.89.37.48.48,0,0,1-.42-.32,5,5,0,0,0-4.35-2.93H166a4.77,4.77,0,0,0-4.72,4.72V82.67A4.77,4.77,0,0,0,166,87.39h1.58a5,5,0,0,0,4.41-3,.49.49,0,0,1,.41-.32,3.2,3.2,0,0,1,.84.37L176,85.82c.21.1.31.21.31.36a5.93,5.93,0,0,1-1.15,2"/><path class="cls-1" d="M200.34,91.59h-1.57c-5.77,0-9.45-3.67-9.45-8.92V66.4c0-5.25,3.68-8.92,9.45-8.92h1.57c5.78,0,9.45,3.67,9.45,8.92V82.67c0,5.25-3.67,8.92-9.45,8.92m4.73-25.19a4.77,4.77,0,0,0-4.73-4.72h-1.57a4.77,4.77,0,0,0-4.72,4.72V82.67a4.77,4.77,0,0,0,4.72,4.72h1.57a4.77,4.77,0,0,0,4.73-4.72Z"/><path class="cls-1" d="M249.73,91.07h-3.68c-.36,0-.52-.16-.52-.53V81.41c0-4.15.37-10.92.47-12.18l-.21,0a29.37,29.37,0,0,1-1.26,3.67L238.6,86a.49.49,0,0,1-.47.31h-1.79a.51.51,0,0,1-.47-.31l-5.93-13.18a28.29,28.29,0,0,1-1.26-3.67l-.21,0c.11,1.26.48,8,.48,12.18v9.13c0,.37-.16.53-.53.53h-3.67c-.37,0-.53-.16-.53-.53v-32c0-.37.16-.53.53-.53h3.36a.51.51,0,0,1,.47.32l7.92,18.73a12,12,0,0,1,.63,2.1h.16a13.08,13.08,0,0,1,.68-2.1l7.93-18.73a.5.5,0,0,1,.47-.32h3.36c.37,0,.52.16.52.53v32c0,.37-.15.53-.52.53"/><path class="cls-1" d="M278.59,76.37h-5.77c-.37,0-.53.16-.53.53V90.54c0,.37-.16.53-.52.53h-3.68c-.36,0-.52-.16-.52-.53v-32c0-.37.16-.53.52-.53h10.5c5.77,0,9.45,3.73,9.45,9.45,0,5.09-3.68,8.92-9.45,8.92m4.72-9.45a4.77,4.77,0,0,0-4.72-4.72h-5.77c-.37,0-.53.16-.53.53v8.92c0,.37.16.52.53.52h5.77a4.77,4.77,0,0,0,4.72-4.72Z"/><path class="cls-1" d="M310.45,91.33h-1.58c-5.77,0-9.45-3.68-9.45-8.92V58.26c0-.36.16-.52.53-.52h3.67c.37,0,.53.16.53.52V82.41a4.77,4.77,0,0,0,4.72,4.72h1.58a4.77,4.77,0,0,0,4.72-4.72V58.26c0-.36.16-.52.52-.52h3.68c.36,0,.52.16.52.52V82.41c0,5.24-3.67,8.92-9.44,8.92"/><path class="cls-1" d="M351.9,62.2h-6c-.37,0-.53.16-.53.53V90.54c0,.37-.16.53-.52.53h-3.68c-.36,0-.52-.16-.52-.53V62.73c0-.37-.16-.53-.53-.53h-6c-.37,0-.53-.16-.53-.53V58.53c0-.37.16-.53.53-.53H351.9c.37,0,.53.16.53.53v3.14c0,.37-.16.53-.53.53"/><path class="cls-1" d="M385.23,91.07H367.38c-.37,0-.52-.16-.52-.53v-32c0-.37.15-.53.52-.53h17.85c.37,0,.52.16.52.53v3.14c0,.37-.15.53-.52.53H372.11c-.37,0-.53.16-.53.53v8.92c0,.37.16.52.53.52h10.76c.36,0,.52.16.52.53v3.15c0,.36-.16.52-.52.52H372.11c-.37,0-.53.16-.53.52v9.45c0,.37.16.53.53.53h13.12c.37,0,.52.15.52.52v3.15c0,.37-.15.53-.52.53"/><path class="cls-1" d="M422.8,91.07h-4a.5.5,0,0,1-.47-.37l-4.88-14a.41.41,0,0,0-.42-.32h-5.2c-.37,0-.52.16-.52.53V90.54c0,.37-.16.53-.53.53h-3.67c-.37,0-.53-.16-.53-.53v-32c0-.37.16-.53.53-.53h10.49c5.78,0,9.45,3.68,9.45,9.45V68c0,2.84-2.52,6.15-4.56,7.09-.22.1-.32.21-.32.42a8.26,8.26,0,0,0,.42,1.26l4.36,12.59a8.59,8.59,0,0,1,.42,1.31c0,.27-.16.43-.53.43m-4.51-24.15a4.77,4.77,0,0,0-4.73-4.72h-5.77c-.37,0-.52.16-.52.53v8.92c0,.37.15.52.52.52h5.77a4.77,4.77,0,0,0,4.73-4.72Z"/><path class="cls-1" d="M457.25,62.2H444.13c-.37,0-.52.16-.52.53v8.92c0,.36.15.52.52.52h10.76c.37,0,.53.16.53.53v3.15c0,.36-.16.52-.53.52H444.13c-.37,0-.52.16-.52.52V90.54c0,.37-.16.53-.53.53h-3.67c-.37,0-.53-.16-.53-.53v-32c0-.37.16-.53.53-.53h17.84c.37,0,.53.16.53.53v3.14c0,.37-.16.53-.53.53"/><path class="cls-1" d="M483.49,91.33h-1.57c-5.77,0-9.45-3.68-9.45-8.92V58.26c0-.36.16-.52.53-.52h3.67c.37,0,.52.16.52.52V82.41a4.78,4.78,0,0,0,4.73,4.72h1.57a4.77,4.77,0,0,0,4.72-4.72V58.26c0-.36.16-.52.53-.52h3.67c.37,0,.53.16.53.52V82.41c0,5.24-3.68,8.92-9.45,8.92"/><path class="cls-1" d="M523.9,62.2h-6c-.36,0-.52.16-.52.53V90.54c0,.37-.16.53-.53.53h-3.67c-.37,0-.52-.16-.52-.53V62.73c0-.37-.16-.53-.53-.53h-6c-.37,0-.53-.16-.53-.53V58.53c0-.37.16-.53.53-.53H523.9c.37,0,.53.16.53.53v3.14c0,.37-.16.53-.53.53"/><path class="cls-1" d="M549.09,91.33h-1.58c-5.77,0-9.44-3.68-9.44-8.92V58.26c0-.36.15-.52.52-.52h3.68c.36,0,.52.16.52.52V82.41a4.77,4.77,0,0,0,4.72,4.72h1.58a4.77,4.77,0,0,0,4.72-4.72V58.26c0-.36.16-.52.53-.52H558c.37,0,.53.16.53.52V82.41c0,5.24-3.68,8.92-9.45,8.92"/><path class="cls-1" d="M595.11,91.07h-4a.5.5,0,0,1-.47-.37l-4.88-14a.4.4,0,0,0-.42-.32h-5.2c-.36,0-.52.16-.52.53V90.54c0,.37-.16.53-.53.53h-3.67c-.37,0-.53-.16-.53-.53v-32c0-.37.16-.53.53-.53h10.5c5.77,0,9.44,3.68,9.44,9.45V68c0,2.84-2.52,6.15-4.56,7.09-.21.1-.32.21-.32.42a8.26,8.26,0,0,0,.42,1.26l4.36,12.59a8.59,8.59,0,0,1,.42,1.31c0,.27-.16.43-.53.43M590.6,66.92a4.77,4.77,0,0,0-4.72-4.72H580.1c-.36,0-.52.16-.52.53v8.92c0,.37.16.52.52.52h5.78a4.77,4.77,0,0,0,4.72-4.72Z"/><path class="cls-1" d="M629.57,91.07H611.72c-.37,0-.52-.16-.52-.53v-32c0-.37.15-.53.52-.53h17.85c.36,0,.52.16.52.53v3.14c0,.37-.16.53-.52.53H616.45c-.37,0-.53.16-.53.53v8.92c0,.37.16.52.53.52H627.2c.37,0,.53.16.53.53v3.15c0,.36-.16.52-.53.52H616.45c-.37,0-.53.16-.53.52v9.45c0,.37.16.53.53.53h13.12c.36,0,.52.15.52.52v3.15c0,.37-.16.53-.52.53"/><path class="cls-1" d="M655.76,91.59h-2.21c-4.2,0-6.56-1.68-7.92-3.83a4.17,4.17,0,0,1-.74-1.52.4.4,0,0,1,.27-.42l2.67-1.37a3.08,3.08,0,0,1,.95-.42c.15,0,.31.11.42.37a4.85,4.85,0,0,0,4.35,3h2.21a4.77,4.77,0,0,0,4.72-4.72c0-3.31-3-4.67-6.35-6.19-4.09-1.84-8.66-3.94-8.66-10.08,0-5.25,3.67-8.92,9.45-8.92h.84c4.2,0,6.56,1.73,8,3.83a4.54,4.54,0,0,1,.73,1.42.51.51,0,0,1-.31.47l-2.84,1.41a2.17,2.17,0,0,1-.79.32.51.51,0,0,1-.42-.32,5,5,0,0,0-4.35-2.93h-.84a4.78,4.78,0,0,0-4.73,4.72c0,3,3.31,4.2,6.83,5.82,3.93,1.79,8.18,4.2,8.18,10.45,0,5.25-3.67,8.92-9.44,8.92"/></svg>