<svg width="1008" height="160" viewBox="0 0 1008 160" fill="none" xmlns="http://www.w3.org/2000/svg">
<rect width="1008" height="160" fill="#1B1B1B"/>
<path d="M600.892 105.556L577.309 46.4786H591.266L602.697 77.1603C603.82 80.1283 604.822 83.0962 605.705 86.0641C606.667 88.9518 607.63 91.9197 608.593 94.9678H609.074C610.036 91.9197 610.959 88.9518 611.841 86.0641C612.804 83.0962 613.847 80.1283 614.97 77.1603L626.4 46.4786H639.635L616.654 105.556H600.892Z" fill="white"/>
<path d="M669.789 107C666.901 107 664.254 106.559 661.848 105.676C659.441 104.874 657.356 103.711 655.591 102.187C653.826 100.663 652.463 98.8582 651.5 96.7726C650.537 94.6068 650.056 92.2405 650.056 89.6737C650.056 86.3849 650.818 83.4972 652.342 81.0106C653.866 78.4438 656.273 76.278 659.562 74.5133C662.85 72.7486 667.062 71.3047 672.195 70.1817C677.329 69.0588 683.545 68.2566 690.845 67.7753C690.604 64.4064 689.401 61.639 687.235 59.4732C685.07 57.3074 681.58 56.2245 676.767 56.2245C673.398 56.2245 670.07 56.8663 666.781 58.1497C663.572 59.3529 660.444 60.7967 657.396 62.4812L652.342 53.2165C655.952 51.131 660.083 49.2459 664.735 47.5615C669.388 45.877 674.241 45.0347 679.294 45.0347C687.556 45.0347 693.853 47.2406 698.184 51.6524C702.516 55.9839 704.682 62.2807 704.682 70.5427V105.556H693.372L692.289 98.2165H691.928C688.799 100.623 685.31 102.708 681.46 104.473C677.69 106.158 673.799 107 669.789 107ZM674 96.171C676.968 96.171 679.815 95.5293 682.543 94.2459C685.35 92.8822 688.118 91.1175 690.845 88.9518V76.4384C685.551 76.8395 681.139 77.401 677.61 78.1229C674.08 78.7646 671.273 79.6069 669.187 80.6496C667.102 81.6924 665.618 82.8956 664.735 84.2593C663.853 85.5427 663.412 86.9865 663.412 88.5908C663.412 91.2379 664.414 93.163 666.42 94.3662C668.505 95.5694 671.032 96.171 674 96.171Z" fill="white"/>
<path d="M757.696 107C753.204 107 749.394 106.398 746.266 105.195C743.218 103.992 740.731 102.307 738.806 100.142C736.961 97.8956 735.597 95.2084 734.715 92.0801C733.913 88.9518 733.512 85.5026 733.512 81.7325V57.4278H717.75V47.0802L734.113 46.4786L735.918 27.9492H747.349V46.4786H774.3V57.4278H747.349V81.7325C747.349 86.6256 748.351 90.2352 750.357 92.5614C752.442 94.8074 756.012 95.9304 761.065 95.9304C763.552 95.9304 765.838 95.7298 767.923 95.3288C770.009 94.8475 772.014 94.2459 773.939 93.524L776.587 103.631C773.939 104.513 771.092 105.275 768.044 105.917C764.996 106.639 761.546 107 757.696 107Z" fill="white"/>
<path d="M815.523 105.556V57.4278H789.895V46.4786H829.36V105.556H815.523ZM821.539 35.6497C818.732 35.6497 816.366 34.8075 814.441 33.123C812.596 31.4385 811.673 29.1925 811.673 26.385C811.673 23.5775 812.596 21.3315 814.441 19.6471C816.366 17.8824 818.732 17 821.539 17C824.347 17 826.673 17.8824 828.518 19.6471C830.443 21.3315 831.406 23.5775 831.406 26.385C831.406 29.1925 830.443 31.4385 828.518 33.123C826.673 34.8075 824.347 35.6497 821.539 35.6497Z" fill="white"/>
<path d="M885.022 107C881.172 107 877.442 106.318 873.832 104.954C870.222 103.591 867.054 101.585 864.327 98.9384C861.599 96.2913 859.393 93.0427 857.709 89.1924C856.105 85.3421 855.303 80.9705 855.303 76.0775C855.303 71.1844 856.105 66.8128 857.709 62.9625C859.393 59.1122 861.599 55.8636 864.327 53.2165C867.054 50.5695 870.222 48.5641 873.832 47.2005C877.442 45.7566 881.172 45.0347 885.022 45.0347C888.872 45.0347 892.602 45.7566 896.212 47.2005C899.821 48.5641 902.99 50.5695 905.717 53.2165C908.444 55.8636 910.61 59.1122 912.214 62.9625C913.899 66.8128 914.741 71.1844 914.741 76.0775C914.741 80.9705 913.899 85.3421 912.214 89.1924C910.61 93.0427 908.444 96.2913 905.717 98.9384C902.99 101.585 899.821 103.591 896.212 104.954C892.602 106.318 888.872 107 885.022 107ZM885.022 95.6897C889.835 95.6897 893.605 93.925 896.332 90.3956C899.059 86.786 900.423 82.0133 900.423 76.0775C900.423 70.0614 899.059 65.2887 896.332 61.7593C893.605 58.1497 889.835 56.3449 885.022 56.3449C880.209 56.3449 876.439 58.1497 873.712 61.7593C870.984 65.2887 869.621 70.0614 869.621 76.0775C869.621 82.0133 870.984 86.786 873.712 90.3956C876.439 93.925 880.209 95.6897 885.022 95.6897Z" fill="white"/>
<path d="M927.929 105.556V46.4786H939.36L940.443 55.3823H940.924C943.731 52.5748 946.82 50.1684 950.189 48.1631C953.638 46.0775 957.648 45.0347 962.221 45.0347C969.039 45.0347 974.052 47.1203 977.261 51.2914C980.469 55.3823 982.074 61.278 982.074 68.9785V105.556H968.116V70.7834C968.116 65.9705 967.274 62.4812 965.59 60.3154C963.985 58.0695 961.138 56.9465 957.047 56.9465C954.159 56.9465 951.592 57.6283 949.346 58.9919C947.1 60.3556 944.614 62.4411 941.886 65.2486V105.556H927.929Z" fill="white"/>
<path d="M539.288 45.0347C543.138 45.0347 546.868 45.7567 550.478 47.2005C554.087 48.5641 557.256 50.5695 559.983 53.2165C562.71 55.8636 564.876 59.1123 566.48 62.9625C568.165 66.8128 569.007 71.1844 569.007 76.0775C569.007 80.9705 568.165 85.3422 566.48 89.1924C564.876 93.0427 562.71 96.2913 559.983 98.9384C557.256 101.585 554.087 103.591 550.478 104.954C546.868 106.318 543.138 107 539.288 107L536.288 101.345L539.288 95.6897C544.101 95.6897 547.871 93.925 550.598 90.3956C553.325 86.786 554.689 82.0133 554.689 76.0775C554.689 70.0614 553.325 65.2887 550.598 61.7593C547.871 58.1497 544.101 56.3449 539.288 56.3449L542.288 50.6898L539.288 45.0347Z" fill="white"/>
<path d="M65.9465 107C61.4545 107 57.6443 106.398 54.516 105.195C51.4679 103.992 48.9813 102.307 47.0561 100.142C45.2112 97.8957 43.8476 95.2086 42.9652 92.0802C42.1631 88.9519 41.762 85.5027 41.762 81.7326V57.4279H26V47.0803L42.3636 46.4787L44.1684 27.9493H55.5989V46.4787H82.5507V57.4279H55.5989V81.7326C55.5989 86.6257 56.6016 90.2353 58.6069 92.5615C60.6925 94.8075 64.262 95.9305 69.3155 95.9305C71.8021 95.9305 74.0882 95.73 76.1737 95.3289C78.2593 94.8476 80.2646 94.246 82.1898 93.5241L84.8368 103.631C82.1898 104.513 79.3422 105.275 76.2941 105.917C73.2459 106.639 69.7967 107 65.9465 107Z" fill="url(#paint0_linear)"/>
<path d="M127.744 107C123.252 107 119.041 106.318 115.111 104.955C111.18 103.511 107.731 101.465 104.763 98.8182C101.875 96.1711 99.5893 92.9225 97.9048 89.0722C96.2203 85.2219 95.378 80.8503 95.378 75.9573C95.378 71.1444 96.2203 66.853 97.9048 63.0829C99.5893 59.2327 101.835 55.984 104.643 53.337C107.53 50.6097 110.779 48.5642 114.389 47.2006C118.079 45.7568 121.929 45.0348 125.939 45.0348C130.351 45.0348 134.242 45.7568 137.611 47.2006C140.98 48.5642 143.827 50.4894 146.153 52.976C148.48 55.3824 150.244 58.3102 151.447 61.7594C152.651 65.2086 153.252 68.9787 153.252 73.0696C153.252 74.4332 153.172 75.7567 153.012 77.0401C152.931 78.2433 152.811 79.246 152.651 80.0482H109.215C110.017 85.5829 112.223 89.6738 115.833 92.3209C119.442 94.9679 124.014 96.2914 129.549 96.2914C132.677 96.2914 135.565 95.8503 138.212 94.9679C140.859 94.0856 143.506 92.8824 146.153 91.3583L150.846 100.021C147.718 102.107 144.148 103.791 140.137 105.075C136.207 106.358 132.076 107 127.744 107ZM126.3 55.7434C122.21 55.7434 118.6 56.9466 115.472 59.353C112.423 61.7594 110.458 65.369 109.576 70.1819H140.98C140.498 65.369 138.974 61.7594 136.407 59.353C133.921 56.9466 130.552 55.7434 126.3 55.7434Z" fill="url(#paint1_linear)"/>
<path d="M198.566 107C193.914 107 189.582 106.318 185.572 104.955C181.641 103.591 178.192 101.586 175.224 98.9385C172.336 96.2915 170.05 93.0428 168.366 89.1925C166.761 85.3423 165.959 80.9706 165.959 76.0776C165.959 71.1845 166.842 66.8129 168.606 62.9626C170.451 59.1124 172.898 55.8637 175.946 53.2166C178.994 50.5696 182.564 48.5642 186.654 47.2006C190.745 45.7568 195.037 45.0348 199.529 45.0348C204.342 45.0348 208.553 45.837 212.162 47.4413C215.852 49.0455 218.94 51.0108 221.427 53.337L214.809 62.0001C212.483 60.1551 210.117 58.7514 207.711 57.7888C205.384 56.8263 202.898 56.345 200.251 56.345C194.315 56.345 189.502 58.1498 185.812 61.7594C182.122 65.2888 180.277 70.0615 180.277 76.0776C180.277 79.0455 180.759 81.7326 181.721 84.1391C182.684 86.5455 184.007 88.631 185.692 90.3957C187.457 92.0802 189.542 93.4038 191.949 94.3663C194.355 95.2487 197.002 95.6898 199.89 95.6898C203.259 95.6898 206.307 95.0481 209.034 93.7647C211.842 92.4813 214.408 90.9572 216.735 89.1925L222.51 98.0963C219.061 101.064 215.251 103.31 211.08 104.834C206.989 106.278 202.818 107 198.566 107Z" fill="url(#paint2_linear)"/>
<path d="M236.18 105.556V20.6097H250.137V42.5081L249.294 55.1418H249.655C252.222 52.4145 255.19 50.0482 258.559 48.0429C261.928 46.0375 265.899 45.0348 270.471 45.0348C277.289 45.0348 282.302 47.1204 285.511 51.2915C288.72 55.3824 290.324 61.2781 290.324 68.9787V105.556H276.367V70.7835C276.367 65.9706 275.524 62.4813 273.84 60.3156C272.236 58.0696 269.388 56.9466 265.297 56.9466C262.409 56.9466 259.843 57.6284 257.597 58.992C255.351 60.3557 252.864 62.4412 250.137 65.2487V105.556H236.18Z" fill="url(#paint3_linear)"/>
<path d="M305.317 105.556V46.4787H316.747L317.83 55.3824H318.312C321.119 52.5749 324.207 50.1685 327.576 48.1632C331.025 46.0776 335.036 45.0348 339.608 45.0348C346.427 45.0348 351.44 47.1204 354.648 51.2915C357.857 55.3824 359.461 61.2781 359.461 68.9787V105.556H345.504V70.7835C345.504 65.9706 344.662 62.4813 342.977 60.3156C341.373 58.0696 338.525 56.9466 334.435 56.9466C331.547 56.9466 328.98 57.6284 326.734 58.992C324.488 60.3557 322.001 62.4412 319.274 65.2487V105.556H305.317Z" fill="url(#paint4_linear)"/>
<path d="M400.684 107C396.834 107 393.104 106.318 389.494 104.955C385.885 103.591 382.716 101.586 379.989 98.9385C377.262 96.2915 375.056 93.0428 373.371 89.1925C371.767 85.3423 370.965 80.9706 370.965 76.0776C370.965 71.1845 371.767 66.8129 373.371 62.9626C375.056 59.1124 377.262 55.8637 379.989 53.2166C382.716 50.5696 385.885 48.5642 389.494 47.2006C393.104 45.7568 396.834 45.0348 400.684 45.0348C404.535 45.0348 408.264 45.7568 411.874 47.2006C415.484 48.5642 418.652 50.5696 421.379 53.2166C424.107 55.8637 426.272 59.1124 427.877 62.9626C429.561 66.8129 430.403 71.1845 430.403 76.0776C430.403 80.9706 429.561 85.3423 427.877 89.1925C426.272 93.0428 424.107 96.2915 421.379 98.9385C418.652 101.586 415.484 103.591 411.874 104.955C408.264 106.318 404.535 107 400.684 107ZM400.684 95.6898C405.497 95.6898 409.267 93.9251 411.994 90.3957C414.722 86.7861 416.085 82.0134 416.085 76.0776C416.085 70.0615 414.722 65.2888 411.994 61.7594C409.267 58.1498 405.497 56.345 400.684 56.345C395.871 56.345 392.101 58.1498 389.374 61.7594C386.647 65.2888 385.283 70.0615 385.283 76.0776C385.283 82.0134 386.647 86.7861 389.374 90.3957C392.101 93.9251 395.871 95.6898 400.684 95.6898Z" fill="url(#paint5_linear)"/>
<path d="M481.974 107C475.076 107 469.822 104.995 466.212 100.984C462.683 96.9733 460.918 91.3182 460.918 84.0187V31.5589H441.185V20.6097H474.755V84.7407C474.755 88.7514 475.757 91.5989 477.763 93.2834C479.848 94.8877 482.375 95.6898 485.343 95.6898C488.471 95.6898 491.84 94.9278 495.45 93.4038L498.699 103.631C495.811 104.754 493.164 105.596 490.757 106.158C488.351 106.719 485.423 107 481.974 107Z" fill="url(#paint6_linear)"/>
<path d="M539.288 107C535.438 107 531.708 106.318 528.098 104.955C524.489 103.591 521.32 101.586 518.593 98.9385C515.866 96.2915 513.66 93.0428 511.975 89.1925C510.371 85.3423 509.569 80.9706 509.569 76.0776C509.569 71.1846 510.371 66.8129 511.975 62.9626C513.66 59.1124 515.866 55.8637 518.593 53.2167C521.32 50.5696 524.489 48.5643 528.098 47.2006C531.708 45.7568 535.438 45.0349 539.288 45.0349L542.288 50.6899L539.288 56.345C534.475 56.345 530.705 58.1498 527.978 61.7594C525.251 65.2888 523.887 70.0616 523.887 76.0776C523.887 82.0134 525.251 86.7861 527.978 90.3958C530.705 93.9252 534.475 95.6899 539.288 95.6899L536.288 101.345L539.288 107Z" fill="url(#paint7_linear)"/>
<path d="M27 136.877V133.964H31.7579V120.35H27V117.437H40.009V120.35H35.2511V133.964H40.009V136.877H27Z" fill="white"/>
<path d="M110.041 136.877V120.35H103.837V117.437H119.737V120.35H113.534V136.877H110.041Z" fill="white"/>
<path d="M183.385 128.316V125.819H196.755V128.316H183.385Z" fill="white"/>
<path d="M269.979 137.233C268.755 137.233 267.6 137.015 266.516 136.579C265.452 136.143 264.519 135.499 263.716 134.647C262.913 133.795 262.28 132.745 261.819 131.497C261.357 130.248 261.126 128.821 261.126 127.216C261.126 125.631 261.357 124.214 261.819 122.966C262.28 121.698 262.913 120.628 263.716 119.756C264.539 118.884 265.503 118.22 266.607 117.764C267.711 117.309 268.915 117.081 270.22 117.081C271.445 117.081 272.529 117.328 273.473 117.824C274.436 118.319 275.229 118.884 275.851 119.518L273.924 121.658C273.422 121.183 272.87 120.806 272.268 120.529C271.666 120.231 270.983 120.083 270.22 120.083C269.397 120.083 268.644 120.251 267.962 120.588C267.299 120.905 266.727 121.371 266.245 121.985C265.763 122.58 265.382 123.313 265.101 124.185C264.84 125.056 264.71 126.037 264.71 127.127C264.71 128.237 264.84 129.238 265.101 130.129C265.382 131.001 265.763 131.744 266.245 132.359C266.727 132.953 267.309 133.419 267.992 133.756C268.695 134.073 269.467 134.231 270.311 134.231C271.114 134.231 271.836 134.063 272.479 133.726C273.141 133.389 273.754 132.913 274.316 132.299L276.243 134.41C275.46 135.321 274.547 136.025 273.503 136.52C272.479 136.995 271.304 137.233 269.979 137.233Z" fill="white"/>
<path d="M346.636 137.233C345.673 137.233 344.739 137.065 343.836 136.728C342.932 136.391 342.139 135.896 341.457 135.242C340.774 134.588 340.222 133.785 339.8 132.834C339.399 131.883 339.198 130.803 339.198 129.594C339.198 128.386 339.399 127.306 339.8 126.354C340.222 125.403 340.774 124.601 341.457 123.947C342.139 123.293 342.932 122.797 343.836 122.461C344.739 122.104 345.673 121.926 346.636 121.926C347.6 121.926 348.533 122.104 349.437 122.461C350.34 122.797 351.133 123.293 351.816 123.947C352.498 124.601 353.04 125.403 353.442 126.354C353.863 127.306 354.074 128.386 354.074 129.594C354.074 130.803 353.863 131.883 353.442 132.834C353.04 133.785 352.498 134.588 351.816 135.242C351.133 135.896 350.34 136.391 349.437 136.728C348.533 137.065 347.6 137.233 346.636 137.233ZM346.636 134.439C347.841 134.439 348.784 134.003 349.467 133.131C350.149 132.24 350.491 131.061 350.491 129.594C350.491 128.108 350.149 126.929 349.467 126.057C348.784 125.165 347.841 124.72 346.636 124.72C345.432 124.72 344.488 125.165 343.806 126.057C343.123 126.929 342.782 128.108 342.782 129.594C342.782 131.061 343.123 132.24 343.806 133.131C344.488 134.003 345.432 134.439 346.636 134.439Z" fill="white"/>
<path d="M418.354 136.877V122.282H421.215L421.486 124.482H421.607C422.309 123.788 423.082 123.194 423.925 122.698C424.789 122.183 425.792 121.926 426.937 121.926C428.643 121.926 429.898 122.441 430.701 123.471C431.504 124.482 431.905 125.938 431.905 127.841V136.877H428.412V128.286C428.412 127.098 428.201 126.236 427.78 125.701C427.378 125.146 426.666 124.868 425.642 124.868C424.919 124.868 424.277 125.037 423.715 125.374C423.152 125.71 422.53 126.226 421.848 126.919V136.877H418.354Z" fill="white"/>
<path d="M503.292 137.233C501.907 137.233 500.582 137.015 499.317 136.579C498.053 136.124 496.958 135.589 496.035 134.974L497.541 132.804C498.444 133.379 499.398 133.835 500.401 134.172C501.425 134.489 502.539 134.647 503.744 134.647C504.768 134.647 505.521 134.479 506.003 134.142C506.504 133.805 506.755 133.389 506.755 132.894C506.755 132.656 506.705 132.448 506.605 132.269C506.504 132.071 506.304 131.883 506.003 131.705C505.701 131.526 505.28 131.358 504.738 131.199C504.216 131.041 503.523 130.872 502.66 130.694C500.672 130.298 499.217 129.743 498.294 129.03C497.39 128.316 496.938 127.405 496.938 126.295C496.938 125.007 497.501 123.957 498.625 123.144C499.749 122.332 501.355 121.926 503.443 121.926C504.668 121.926 505.812 122.124 506.876 122.52C507.94 122.916 508.853 123.362 509.616 123.858L508.02 125.968C507.297 125.512 506.525 125.156 505.701 124.898C504.878 124.64 504.025 124.512 503.142 124.512C502.158 124.512 501.455 124.67 501.034 124.987C500.612 125.284 500.401 125.661 500.401 126.117C500.401 126.632 500.703 127.018 501.305 127.276C501.907 127.533 502.891 127.811 504.256 128.108C505.44 128.366 506.414 128.643 507.177 128.94C507.94 129.238 508.542 129.574 508.984 129.951C509.445 130.308 509.767 130.714 509.947 131.17C510.128 131.625 510.218 132.141 510.218 132.715C510.218 133.349 510.068 133.944 509.767 134.499C509.466 135.034 509.024 135.509 508.442 135.925C507.86 136.322 507.137 136.639 506.274 136.877C505.41 137.114 504.417 137.233 503.292 137.233Z" fill="white"/>
<path d="M579.497 137.233C577.771 137.233 576.516 136.728 575.733 135.717C574.95 134.687 574.559 133.221 574.559 131.318V122.282H578.022V130.872C578.022 132.061 578.223 132.933 578.624 133.488C579.046 134.023 579.768 134.291 580.792 134.291C581.495 134.291 582.117 134.132 582.659 133.815C583.221 133.498 583.834 132.933 584.496 132.121V122.282H587.959V136.877H585.129L584.858 134.558H584.737C584.034 135.371 583.262 136.025 582.418 136.52C581.575 136.995 580.602 137.233 579.497 137.233Z" fill="white"/>
<path d="M662.809 137.233C661.083 137.233 659.768 136.738 658.864 135.747C657.981 134.756 657.539 133.359 657.539 131.556V118.597H652.601V115.892H661.003V131.734C661.003 132.725 661.253 133.429 661.755 133.845C662.277 134.241 662.91 134.439 663.652 134.439C664.435 134.439 665.279 134.251 666.182 133.874L666.995 136.401C666.272 136.678 665.61 136.886 665.008 137.025C664.405 137.164 663.673 137.233 662.809 137.233Z" fill="white"/>
<path d="M740.791 137.233C739.667 137.233 738.713 137.085 737.93 136.787C737.167 136.49 736.545 136.074 736.063 135.539C735.602 134.984 735.26 134.32 735.039 133.548C734.839 132.775 734.738 131.923 734.738 130.991V124.987H730.793V122.431L734.889 122.282L735.341 117.705H738.201V122.282H744.947V124.987H738.201V130.991C738.201 132.2 738.452 133.092 738.954 133.666C739.476 134.221 740.369 134.499 741.634 134.499C742.257 134.499 742.829 134.449 743.351 134.35C743.873 134.231 744.375 134.083 744.856 133.904L745.519 136.401C744.856 136.619 744.144 136.807 743.381 136.966C742.618 137.144 741.755 137.233 740.791 137.233Z" fill="white"/>
<path d="M816.243 136.877V124.987H809.829V122.282H819.706V136.877H816.243ZM817.749 119.607C817.046 119.607 816.454 119.399 815.972 118.983C815.511 118.567 815.28 118.012 815.28 117.318C815.28 116.625 815.511 116.07 815.972 115.654C816.454 115.218 817.046 115 817.749 115C818.452 115 819.034 115.218 819.496 115.654C819.977 116.07 820.218 116.625 820.218 117.318C820.218 118.012 819.977 118.567 819.496 118.983C819.034 119.399 818.452 119.607 817.749 119.607Z" fill="white"/>
<path d="M888.052 136.877V122.282H890.913L891.184 124.482H891.304C892.007 123.788 892.78 123.194 893.623 122.698C894.486 122.183 895.49 121.926 896.634 121.926C898.341 121.926 899.595 122.441 900.398 123.471C901.201 124.482 901.603 125.938 901.603 127.841V136.877H898.11V128.286C898.11 127.098 897.899 126.236 897.477 125.701C897.076 125.146 896.363 124.868 895.339 124.868C894.617 124.868 893.974 125.037 893.412 125.374C892.85 125.71 892.228 126.226 891.545 126.919V136.877H888.052Z" fill="white"/>
<path d="M972.478 143.327C971.454 143.327 970.531 143.247 969.707 143.089C968.884 142.93 968.172 142.683 967.569 142.346C966.987 142.029 966.536 141.622 966.214 141.127C965.893 140.651 965.733 140.087 965.733 139.433C965.733 138.244 966.515 137.223 968.081 136.371V136.252C967.68 136.015 967.329 135.707 967.027 135.331C966.726 134.935 966.576 134.429 966.576 133.815C966.576 133.339 966.736 132.854 967.058 132.359C967.379 131.863 967.81 131.437 968.352 131.08V130.962C967.83 130.585 967.379 130.08 966.997 129.446C966.636 128.812 966.455 128.059 966.455 127.187C966.455 126.354 966.616 125.611 966.937 124.957C967.278 124.303 967.72 123.759 968.262 123.323C968.824 122.867 969.467 122.52 970.189 122.282C970.932 122.044 971.715 121.926 972.538 121.926C973.381 121.926 974.154 122.044 974.857 122.282H980.91V124.898H977.507C977.768 125.175 977.989 125.532 978.169 125.968C978.37 126.384 978.471 126.83 978.471 127.306C978.471 128.118 978.31 128.831 977.989 129.446C977.688 130.06 977.266 130.575 976.724 130.991C976.202 131.407 975.58 131.724 974.857 131.942C974.134 132.16 973.361 132.269 972.538 132.269C971.836 132.269 971.083 132.131 970.28 131.853C969.677 132.21 969.376 132.666 969.376 133.221C969.376 134.132 970.31 134.588 972.177 134.588H975.188C977.115 134.588 978.561 134.865 979.524 135.42C980.508 135.955 981 136.867 981 138.155C981 138.868 980.799 139.542 980.398 140.176C979.996 140.81 979.424 141.355 978.681 141.811C977.959 142.286 977.065 142.653 976.001 142.91C974.957 143.188 973.783 143.327 972.478 143.327ZM972.538 130.1C973.301 130.1 973.953 129.852 974.496 129.357C975.058 128.841 975.339 128.118 975.339 127.187C975.339 126.295 975.058 125.592 974.496 125.076C973.953 124.561 973.301 124.303 972.538 124.303C971.775 124.303 971.113 124.561 970.551 125.076C970.009 125.592 969.738 126.295 969.738 127.187C969.738 128.118 970.009 128.841 970.551 129.357C971.113 129.852 971.775 130.1 972.538 130.1ZM972.899 141.068C973.622 141.068 974.275 140.998 974.857 140.86C975.439 140.741 975.941 140.572 976.363 140.354C976.784 140.136 977.105 139.889 977.326 139.611C977.547 139.334 977.657 139.037 977.657 138.719C977.657 138.145 977.406 137.758 976.905 137.56C976.423 137.382 975.68 137.293 974.676 137.293H972.327C971.384 137.293 970.631 137.223 970.069 137.085C969.547 137.382 969.175 137.689 968.955 138.006C968.734 138.323 968.623 138.65 968.623 138.987C968.623 139.641 968.985 140.146 969.707 140.503C970.45 140.879 971.514 141.068 972.899 141.068Z" fill="white"/>
<defs>
<linearGradient id="paint0_linear" x1="284.144" y1="20.6097" x2="284.144" y2="107" gradientUnits="userSpaceOnUse">
<stop stop-color="#FF9900"/>
</linearGradient>
<linearGradient id="paint1_linear" x1="284.144" y1="20.6097" x2="284.144" y2="107" gradientUnits="userSpaceOnUse">
<stop stop-color="#FF9900"/>
</linearGradient>
<linearGradient id="paint2_linear" x1="284.144" y1="20.6097" x2="284.144" y2="107" gradientUnits="userSpaceOnUse">
<stop stop-color="#FF9900"/>
</linearGradient>
<linearGradient id="paint3_linear" x1="284.144" y1="20.6097" x2="284.144" y2="107" gradientUnits="userSpaceOnUse">
<stop stop-color="#FF9900"/>
</linearGradient>
<linearGradient id="paint4_linear" x1="284.144" y1="20.6097" x2="284.144" y2="107" gradientUnits="userSpaceOnUse">
<stop stop-color="#FF9900"/>
</linearGradient>
<linearGradient id="paint5_linear" x1="284.144" y1="20.6097" x2="284.144" y2="107" gradientUnits="userSpaceOnUse">
<stop stop-color="#FF9900"/>
</linearGradient>
<linearGradient id="paint6_linear" x1="284.144" y1="20.6097" x2="284.144" y2="107" gradientUnits="userSpaceOnUse">
<stop stop-color="#FF9900"/>
</linearGradient>
<linearGradient id="paint7_linear" x1="284.144" y1="20.6097" x2="284.144" y2="107" gradientUnits="userSpaceOnUse">
<stop stop-color="#FF9900"/>
</linearGradient>
</defs>
</svg>
